<svg width="336" height="402" viewBox="0 0 336 402" fill="none" xmlns="http://www.w3.org/2000/svg">
<path d="M48.8101 3.36203C5.24389 62.7997 12.0355 50.6473 5.31321 126.428C3.77791 143.736 -0.528265 167.979 8.56807 183.251C21.9916 205.788 100.74 224.052 97.8606 183.162C95.9999 156.737 72.1751 138.349 49.9963 154.269C13.6248 180.377 19.8491 235.799 35.5689 270.154C52.8756 307.976 89.639 326.013 129.083 314.764C147.102 309.625 159.451 285.107 133.483 279.922C80.0719 269.257 102.053 338.233 128.363 357.326C175.754 391.716 274.296 389.4 305.695 328.211C315.513 309.08 305.258 308.493 295.435 310.985C285.468 313.513 255.158 314.778 265.169 316.258C282.671 318.844 295.187 312.721 310.709 307.375C330.729 300.481 324.464 350.876 323.894 366.684C323.595 374.982 325.889 389.689 330.526 396.514C339.682 409.99 325.027 362.647 316.658 348.596" stroke="#00ADB5" stroke-opacity="0.2" stroke-width="5" stroke-linecap="round" stroke-linejoin="round"/>
</svg>
