<svg width="88" height="21" viewBox="0 0 88 21" fill="none" xmlns="http://www.w3.org/2000/svg">
<path d="M0.44 20V0.559999H8.84V3.464H4.736V8.36H8.312V11.36H4.736V20H0.44ZM10.8463 20V0.559999H19.2463V3.464H15.1423V8.36H18.7183V11.36H15.1423V20H10.8463ZM21.2525 20V0.559999H26.6045C27.9165 0.559999 29.0525 0.703999 30.0125 0.991999C30.9725 1.28 31.7165 1.8 32.2445 2.552C32.7885 3.288 33.0605 4.336 33.0605 5.696C33.0605 6.496 32.9965 7.208 32.8685 7.832C32.7405 8.456 32.5005 9 32.1485 9.464C31.8125 9.912 31.3245 10.288 30.6845 10.592L33.3485 20H28.9085L26.7725 11.288H25.5485V20H21.2525ZM25.5485 8.816H26.7485C27.3565 8.816 27.8285 8.712 28.1645 8.504C28.5005 8.28 28.7325 7.968 28.8605 7.568C29.0045 7.152 29.0765 6.656 29.0765 6.08C29.0765 5.248 28.9245 4.6 28.6205 4.136C28.3165 3.672 27.7565 3.44 26.9405 3.44H25.5485V8.816ZM39.4944 20.24C38.4864 20.24 37.6224 20.064 36.9024 19.712C36.1824 19.344 35.6304 18.816 35.2464 18.128C34.8624 17.424 34.6704 16.584 34.6704 15.608V10.52C34.6704 9.528 34.8624 8.688 35.2464 8C35.6304 7.312 36.1824 6.792 36.9024 6.44C37.6384 6.072 38.5024 5.888 39.4944 5.888C40.5184 5.888 41.3664 6.064 42.0384 6.416C42.7264 6.768 43.2384 7.288 43.5744 7.976C43.9264 8.664 44.1024 9.512 44.1024 10.52V13.304H38.5344V15.968C38.5344 16.32 38.5744 16.608 38.6544 16.832C38.7344 17.056 38.8464 17.216 38.9904 17.312C39.1344 17.408 39.3024 17.456 39.4944 17.456C39.6864 17.456 39.8544 17.416 39.9984 17.336C40.1584 17.24 40.2784 17.096 40.3584 16.904C40.4544 16.712 40.5024 16.448 40.5024 16.112V14.648H44.1024V15.992C44.1024 17.4 43.6944 18.464 42.8784 19.184C42.0624 19.888 40.9344 20.24 39.4944 20.24ZM38.5344 11.48H40.5024V10.088C40.5024 9.72 40.4544 9.432 40.3584 9.224C40.2784 9.016 40.1584 8.872 39.9984 8.792C39.8544 8.712 39.6784 8.672 39.4704 8.672C39.2784 8.672 39.1104 8.72 38.9664 8.816C38.8384 8.912 38.7344 9.08 38.6544 9.32C38.5744 9.544 38.5344 9.872 38.5344 10.304V11.48ZM49.2318 20.24C48.2078 20.24 47.4158 19.88 46.8558 19.16C46.2958 18.44 46.0158 17.376 46.0158 15.968V10.232C46.0158 9.368 46.1358 8.616 46.3758 7.976C46.6158 7.32 46.9758 6.808 47.4558 6.44C47.9358 6.072 48.5278 5.888 49.2318 5.888C49.7438 5.888 50.2318 5.992 50.6958 6.2C51.1598 6.392 51.5838 6.656 51.9678 6.992V0.559999H55.8798V20H51.9678V18.92C51.5358 19.336 51.0878 19.664 50.6238 19.904C50.1598 20.128 49.6958 20.24 49.2318 20.24ZM50.9358 17.744C51.0638 17.744 51.2158 17.712 51.3918 17.648C51.5838 17.584 51.7758 17.496 51.9678 17.384V8.624C51.8078 8.544 51.6398 8.472 51.4638 8.408C51.2878 8.344 51.1198 8.312 50.9598 8.312C50.6078 8.312 50.3518 8.464 50.1918 8.768C50.0318 9.056 49.9518 9.408 49.9518 9.824V16.208C49.9518 16.496 49.9838 16.76 50.0478 17C50.1118 17.224 50.2158 17.408 50.3598 17.552C50.5038 17.68 50.6958 17.744 50.9358 17.744ZM60.7741 20.24C60.0701 20.24 59.4781 20.072 58.9981 19.736C58.5181 19.4 58.1581 18.976 57.9181 18.464C57.6781 17.936 57.5581 17.4 57.5581 16.856C57.5581 15.992 57.7261 15.264 58.0621 14.672C58.4141 14.08 58.8701 13.584 59.4301 13.184C59.9901 12.784 60.6061 12.448 61.2781 12.176C61.9501 11.888 62.6141 11.632 63.2701 11.408V10.016C63.2701 9.776 63.2461 9.568 63.1981 9.392C63.1501 9.2 63.0701 9.056 62.9581 8.96C62.8461 8.848 62.6781 8.792 62.4541 8.792C62.2301 8.792 62.0541 8.84 61.9261 8.936C61.8141 9.032 61.7341 9.168 61.6861 9.344C61.6381 9.504 61.6061 9.688 61.5901 9.896L61.4941 10.904L57.8461 10.76C57.9261 9.096 58.3661 7.872 59.1661 7.088C59.9821 6.288 61.1981 5.888 62.8141 5.888C64.2221 5.888 65.2701 6.28 65.9581 7.064C66.6621 7.832 67.0141 8.832 67.0141 10.064V16.544C67.0141 17.12 67.0221 17.624 67.0381 18.056C67.0701 18.488 67.1021 18.864 67.1341 19.184C67.1821 19.504 67.2221 19.776 67.2541 20H63.7501C63.7021 19.632 63.6461 19.232 63.5821 18.8C63.5181 18.368 63.4701 18.112 63.4381 18.032C63.2781 18.608 62.9741 19.12 62.5261 19.568C62.0941 20.016 61.5101 20.24 60.7741 20.24ZM62.1661 17.6C62.3261 17.6 62.4701 17.568 62.5981 17.504C62.7421 17.44 62.8701 17.352 62.9821 17.24C63.0941 17.128 63.1901 17.016 63.2701 16.904V13.112C62.9501 13.304 62.6541 13.504 62.3821 13.712C62.1101 13.904 61.8781 14.12 61.6861 14.36C61.4941 14.6 61.3421 14.864 61.2301 15.152C61.1341 15.424 61.0861 15.736 61.0861 16.088C61.0861 16.552 61.1821 16.92 61.3741 17.192C61.5661 17.464 61.8301 17.6 62.1661 17.6ZM73.8532 20.24C72.8452 20.24 71.9812 20.056 71.2612 19.688C70.5572 19.32 70.0132 18.792 69.6292 18.104C69.2452 17.416 69.0532 16.584 69.0532 15.608V10.52C69.0532 9.528 69.2452 8.688 69.6292 8C70.0132 7.312 70.5572 6.792 71.2612 6.44C71.9812 6.072 72.8452 5.888 73.8532 5.888C74.8452 5.888 75.6852 6.04 76.3732 6.344C77.0772 6.648 77.6132 7.112 77.9812 7.736C78.3492 8.344 78.5332 9.12 78.5332 10.064V11.528H74.7652V9.944C74.7652 9.576 74.7252 9.296 74.6452 9.104C74.5812 8.896 74.4772 8.752 74.3332 8.672C74.2052 8.592 74.0452 8.552 73.8532 8.552C73.6612 8.552 73.5012 8.608 73.3732 8.72C73.2452 8.816 73.1492 8.984 73.0852 9.224C73.0212 9.448 72.9892 9.768 72.9892 10.184V15.944C72.9892 16.568 73.0612 16.992 73.2052 17.216C73.3652 17.44 73.5892 17.552 73.8772 17.552C74.0852 17.552 74.2532 17.512 74.3812 17.432C74.5092 17.336 74.6052 17.192 74.6692 17C74.7332 16.792 74.7652 16.52 74.7652 16.184V14.336H78.5332V16.016C78.5332 16.944 78.3412 17.728 77.9572 18.368C77.5892 18.992 77.0532 19.464 76.3492 19.784C75.6612 20.088 74.8292 20.24 73.8532 20.24ZM84.9118 20.144C83.8718 20.144 83.0718 19.992 82.5117 19.688C81.9518 19.384 81.5598 18.944 81.3358 18.368C81.1278 17.776 81.0238 17.064 81.0238 16.232V8.696H79.6798V6.128H81.0238V1.904H84.9838V6.128H86.9518V8.696H84.9838V15.848C84.9838 16.248 85.0958 16.536 85.3198 16.712C85.5598 16.888 85.8558 16.976 86.2078 16.976C86.4158 16.976 86.6078 16.968 86.7838 16.952C86.9598 16.92 87.1198 16.896 87.2638 16.88V19.952C87.0558 19.984 86.7278 20.024 86.2798 20.072C85.8318 20.12 85.3758 20.144 84.9118 20.144Z" fill="#EEEEEE"/>
</svg>
